<svg width="24" height="24" viewBox="0 0 24 24" fill="none" xmlns="http://www.w3.org/2000/svg">
<g id="mdi:drone">
<path id="Vector" d="M4.71111 13.2489L4.66266 13.1596H4.75955L4.8405 13.0104L4.98241 12.7489H5.27997H10.8514H11.8099L11.2615 13.535L9.80416 15.6239H10.4226L13.1735 12.894L13.3197 12.7489H13.5257H19.5428C19.7068 12.7489 20.0893 12.6762 20.4375 12.5413C20.5892 12.4826 20.7074 12.4221 20.7854 12.3687C20.7611 12.3241 20.7273 12.2698 20.6825 12.2073C20.5567 12.0317 20.3645 11.8207 20.1172 11.6179C19.6186 11.2089 18.947 10.8739 18.2057 10.8739C17.4124 10.8739 17.0204 11.0505 16.6875 11.2594C16.609 11.3087 16.524 11.3679 16.4312 11.4326C16.1338 11.6397 15.7555 11.9032 15.2494 12.0785L15.1698 12.106H15.0857H4.38854C4.27213 12.106 4.16789 12.149 4.09703 12.2143C4.02754 12.2783 3.99711 12.356 3.99711 12.4275V14.3917H4.09098L4.71111 13.2489ZM6.56283 14.1596H6.34299L6.46896 14.3917H6.56283V14.1596ZM10.4226 8.82031H9.80416L11.1122 10.6953H12.312L10.4226 8.82031ZM20.8598 12.3065C20.8595 12.3065 20.8576 12.3085 20.8548 12.3127C20.8586 12.3086 20.86 12.3065 20.8598 12.3065Z" stroke="black"/>
</g>
</svg>
