<svg width="48" height="48" viewBox="0 0 48 48" fill="none" xmlns="http://www.w3.org/2000/svg">
<path d="M33.9522 21.0004L34.0633 21.142L34.2392 21.1803L42.3861 22.9538L43.0778 26.5016C42.8135 26.0543 42.5017 25.6351 42.1467 25.2517C41.4392 24.4875 40.5769 23.8829 39.6172 23.4784C38.6576 23.0739 37.6227 22.8787 36.5816 22.9058C35.5406 22.933 34.5173 23.1818 33.58 23.6358C32.6427 24.0897 31.813 24.7384 31.1463 25.5384C30.4796 26.3384 29.9912 27.2715 29.7136 28.2752C29.4878 29.0919 29.4058 29.94 29.4698 30.782H21.6393C21.7004 29.9738 21.6271 29.1598 21.4209 28.3732C21.1656 27.3989 20.712 26.4878 20.0885 25.6968C19.465 24.9057 18.685 24.2519 17.7973 23.776C16.9096 23.3001 15.9333 23.0125 14.9294 22.9311C13.9255 22.8497 12.9156 22.9763 11.9629 23.3029C11.0101 23.6295 10.135 24.1492 9.39218 24.8295C8.85359 25.3227 8.39298 25.8926 8.02452 26.5196L9.09054 17.4098L9.09056 17.4096C9.12865 17.0829 9.28541 16.7817 9.53106 16.563C9.7767 16.3444 10.0941 16.2236 10.423 16.2236H10.423H29.8617C29.9684 16.2237 30.0736 16.248 30.1696 16.2947C30.2656 16.3414 30.3497 16.4093 30.4156 16.4933L33.9522 21.0004ZM40.5603 27.6969C41.0609 28.446 41.328 29.3267 41.328 30.2276C41.328 31.4357 40.848 32.5944 39.9937 33.4487C39.1395 34.303 37.9808 34.7829 36.7727 34.7829C35.8717 34.7829 34.991 34.5157 34.2419 34.0151C33.4928 33.5146 32.909 32.8032 32.5642 31.9708C32.2195 31.1384 32.1293 30.2225 32.305 29.3389C32.4808 28.4553 32.9147 27.6436 33.5517 27.0065C34.1888 26.3695 35.0005 25.9356 35.8841 25.7599C36.7677 25.5841 37.6836 25.6743 38.516 26.0191C39.3484 26.3639 40.0598 26.9477 40.5603 27.6969ZM18.1242 27.6968C18.6248 28.446 18.8919 29.3267 18.8919 30.2276C18.8919 31.4357 18.412 32.5944 17.5577 33.4487C16.7034 34.303 15.5448 34.7829 14.3366 34.7829C13.4357 34.7829 12.555 34.5157 11.8059 34.0152C11.0568 33.5146 10.4729 32.8032 10.1281 31.9708C9.78335 31.1385 9.69314 30.2226 9.86891 29.3389C10.0447 28.4553 10.4785 27.6436 11.1156 27.0066C11.7527 26.3695 12.5643 25.9356 13.448 25.7599C14.3316 25.5841 15.2475 25.6743 16.0799 26.0191C16.9122 26.3639 17.6237 26.9477 18.1242 27.6968Z" stroke="black"/>
</svg>
