<svg width="24" height="24" viewBox="0 0 24 24" fill="none" xmlns="http://www.w3.org/2000/svg">
<g id="game-icons:jeep">
<path id="Vector" d="M4.52737 12.2279C4.47211 12.2785 4.41839 12.3306 4.36626 12.3842L4.7937 8.73151L4.79372 8.7313C4.80567 8.62887 4.85483 8.53438 4.93187 8.46581C5.0089 8.39724 5.10845 8.35937 5.21158 8.35938H5.21163H14.9308C14.9463 8.35939 14.9616 8.36292 14.9755 8.36969C14.9894 8.37647 15.0016 8.38632 15.0112 8.3985C15.0112 8.39851 15.0112 8.39853 15.0112 8.39854L16.7796 10.6521L16.8907 10.7937L17.0666 10.832L18.9243 11.2364C18.7129 11.207 18.4989 11.195 18.2844 11.2006C17.7284 11.215 17.1818 11.348 16.6811 11.5904C16.1805 11.8329 15.7373 12.1794 15.3812 12.6067C15.0251 13.034 14.7642 13.5324 14.616 14.0685C14.5194 14.4179 14.4721 14.778 14.4746 15.1385H11.0801C11.0824 14.796 11.0397 14.4538 10.9524 14.1208C10.816 13.6004 10.5737 13.1137 10.2407 12.6912C9.90766 12.2687 9.49105 11.9194 9.0169 11.6652C8.54275 11.411 8.02126 11.2574 7.48503 11.2139C6.94881 11.1704 6.40938 11.2381 5.90047 11.4125C5.39156 11.587 4.92412 11.8646 4.52737 12.2279L4.86505 12.5967L4.52737 12.2279ZM19.9058 11.5064C19.7755 11.4515 19.6426 11.4038 19.5077 11.3634L20.9792 11.6837L21.0977 12.2913C20.7524 11.9593 20.3485 11.693 19.9058 11.5064ZM20.0724 13.9849C20.2952 14.3183 20.4141 14.7103 20.4141 15.1114C20.4141 15.6491 20.2005 16.1649 19.8202 16.5451C19.44 16.9254 18.9242 17.139 18.3865 17.139C17.9854 17.139 17.5934 17.0201 17.26 16.7973C16.9265 16.5745 16.6667 16.2578 16.5132 15.8873C16.3597 15.5168 16.3196 15.1091 16.3978 14.7158C16.4761 14.3225 16.6692 13.9612 16.9528 13.6776C17.2363 13.394 17.5976 13.2009 17.9909 13.1227C18.3843 13.0445 18.792 13.0846 19.1625 13.2381C19.533 13.3915 19.8496 13.6514 20.0724 13.9849ZM8.85436 13.9849C9.07716 14.3183 9.19608 14.7103 9.19608 15.1114C9.19608 15.6491 8.98246 16.1649 8.6022 16.5451C8.22195 16.9254 7.70621 17.139 7.16845 17.139C6.76742 17.139 6.3754 17.0201 6.04195 16.7973C5.70851 16.5745 5.44862 16.2578 5.29516 15.8873C5.14169 15.5168 5.10154 15.1091 5.17977 14.7158C5.25801 14.3225 5.45112 13.9612 5.73469 13.6776C6.01826 13.394 6.37955 13.2009 6.77288 13.1227C7.1662 13.0445 7.57389 13.0846 7.94439 13.2381C8.31489 13.3915 8.63156 13.6514 8.85436 13.9849Z" stroke="black"/>
</g>
</svg>
