<svg width="48" height="48" viewBox="0 0 48 48" fill="none" xmlns="http://www.w3.org/2000/svg">
<path d="M22.1112 26.777L18.6481 31.7409H21.0494L26.6975 26.136L26.8437 25.9909H27.0497H39.0839C39.4931 25.9909 40.3213 25.8258 41.0539 25.5421C41.417 25.4015 41.7223 25.2445 41.9273 25.0883C42.1279 24.9355 42.1476 24.8506 42.1495 24.8459C42.1489 24.8397 42.1466 24.8211 42.1373 24.7878C42.1254 24.7456 42.1052 24.69 42.0736 24.6212C42.01 24.483 41.9095 24.3114 41.7697 24.1165C41.4906 23.7272 41.0756 23.2736 40.5497 22.8423C39.494 21.9764 38.0424 21.2409 36.4097 21.2409C34.7249 21.2409 33.8493 21.6229 33.1075 22.0885C32.9208 22.2057 32.7316 22.3374 32.5327 22.4757C31.9447 22.8847 31.2727 23.3523 30.3333 23.6777L30.2538 23.7052H30.1697H8.77537C8.42254 23.7052 8.09156 23.8348 7.85352 24.0541C7.61686 24.2722 7.49252 24.5588 7.49252 24.8481V29.2766H8.47781L10.1188 26.2525L10.2607 25.9909H10.5582H21.7011H22.6596L22.1112 26.777ZM21.9619 21.8838H25.836L21.0494 17.1338H18.6481L21.9619 21.8838ZM13.6239 29.2766V27.8124H11.8441L12.6386 29.2766H13.6239Z" stroke="black"/>
</svg>
