<svg width="48" height="48" viewBox="0 0 48 48" fill="none" xmlns="http://www.w3.org/2000/svg">
<path d="M39.854 10.311L39.8118 9.96585L39.4735 9.88531C39.0558 9.78584 38.5768 9.78592 38.1256 9.78599L38.0891 9.78599C35.2424 9.78599 30.8996 10.837 26.0784 15.6582C23.1301 18.6065 20.8481 22.145 19.2475 26.1639L19.1241 26.4736L19.3626 26.7065L23.0483 30.3065L23.2771 30.53L23.5759 30.416C27.549 28.9 31.0893 26.6159 34.0546 23.6333C39.7898 17.8978 40.1634 12.8407 39.854 10.311ZM41.7431 7.89532C41.7625 7.90186 41.7808 7.90814 41.798 7.91411C41.8128 7.95666 41.8294 8.00606 41.8473 8.06214C41.9225 8.29679 42.0216 8.64788 42.1122 9.10139C42.2933 10.0085 42.4398 11.3237 42.2926 12.9363C41.9992 16.151 40.5351 20.59 35.7641 25.361L35.7639 25.3612C32.5486 28.5808 28.6883 31.0834 24.4367 32.7045L24.4367 32.7045L24.4326 32.7061C24.0735 32.8466 23.7262 32.9289 23.4148 32.9289C22.6514 32.9289 21.901 32.5965 21.3341 32.0296L21.3333 32.0288L17.684 28.3966C16.876 27.5725 16.6002 26.3741 17.0068 25.2781C18.4467 21.7055 20.6595 17.6398 24.3512 13.9481C29.8107 8.48867 34.8259 7.35742 38.0891 7.35742C39.3138 7.35742 40.2993 7.5188 40.9741 7.6783C41.3114 7.75803 41.5708 7.83721 41.7431 7.89532ZM31.2444 32.3422L27.664 40.2269L25.5188 35.1864C27.5279 34.4078 29.4388 33.4429 31.2444 32.3422ZM17.3701 18.4679C16.2693 20.2735 15.3045 22.1843 14.5258 24.1935L9.48537 22.0483L17.3701 18.4679ZM30.4198 19.2924C29.2779 18.1506 29.2779 16.29 30.4198 15.1481C31.5613 14.0066 33.421 14.0062 34.563 15.147C35.6925 16.2924 35.7028 18.1538 34.5641 19.2924C33.4223 20.4343 31.5617 20.4343 30.4198 19.2924ZM14.6256 40.6431L20.4834 34.7709C20.7026 34.9013 20.9285 35.0158 21.1593 35.1144L15.6306 40.6431H14.6256ZM18.4547 32.984L10.7795 40.6431H9.06912V38.9331L16.7304 31.2719L18.4547 32.984ZM14.5956 28.5552C14.6949 28.7869 14.81 29.0114 14.9407 29.2295L9.06912 35.0867V34.0817L14.5956 28.5552Z" fill="black" stroke="black"/>
</svg>
