<svg width="24" height="24" viewBox="0 0 24 24" fill="none" xmlns="http://www.w3.org/2000/svg">
<g id="mdi:rocket-launch-outline">
<path id="Vector" d="M20.4309 4.08342C20.5391 4.109 20.6299 4.13434 20.7019 4.15633C20.7347 4.26396 20.7749 4.41355 20.8123 4.60062C20.8988 5.03412 20.9698 5.66742 20.8987 6.44639C20.7575 7.99402 20.0519 10.1594 17.7066 12.5047L17.7064 12.5049C16.1237 14.0898 14.2235 15.3217 12.1306 16.1196L12.1306 16.1196L12.1266 16.1212C11.9646 16.1846 11.823 16.2154 11.7088 16.2154C11.3997 16.2154 11.0864 16.0802 10.8452 15.839L10.8443 15.8382L9.02082 14.0232C8.68415 13.6791 8.57119 13.1833 8.73799 12.7301C9.44928 10.9661 10.5392 8.96632 12.3537 7.15181C15.0361 4.4695 17.4799 3.92969 19.0459 3.92969C19.6363 3.92969 20.1097 4.0075 20.4309 4.08342ZM8.07578 9.78675C7.72256 10.4228 7.40338 11.0834 7.1263 11.7673L5.36501 11.0177L8.07578 9.78675ZM15.0717 16.7827L13.8407 19.4934L13.0912 17.7322C13.7751 17.4551 14.4356 17.1359 15.0717 16.7827ZM20.1765 5.12613L20.1343 4.78097L19.796 4.70043C19.5577 4.6437 19.2918 4.64384 19.075 4.64396C19.0652 4.64397 19.0555 4.64397 19.0459 4.64397C17.5535 4.64397 15.3193 5.19779 12.8638 7.65328C11.364 9.15304 10.2048 10.9515 9.39282 12.9904L9.26946 13.3001L9.50796 13.5331L11.3508 15.3331L11.5796 15.5566L11.8784 15.4425C13.8972 14.6722 15.6976 13.511 17.2057 11.9942C20.1295 9.07011 20.3402 6.46439 20.1765 5.12613ZM20.6341 3.9591C20.634 3.95878 20.634 3.95871 20.634 3.95889L20.6341 3.9591ZM15.388 9.47042C14.9147 8.99711 14.9147 8.22512 15.388 7.75181C15.861 7.27888 16.6321 7.2785 17.1055 7.75068C17.575 8.22752 17.5767 9.00035 17.1066 9.47042C16.6333 9.94373 15.8613 9.94373 15.388 9.47042ZM8.87432 16.4934L5.28768 20.0725H4.7859V19.5711L8.36715 15.9898L8.87432 16.4934Z" fill="black" stroke="black"/>
</g>
</svg>
