<svg width="24" height="24" viewBox="0 0 24 24" fill="none" xmlns="http://www.w3.org/2000/svg">
<g id="Frame 1623">
<path id="Vector" d="M21.5935 11.8149H20.0342C19.7809 7.96415 16.703 4.88564 12.8519 4.63241V3.07309C12.8492 2.93883 12.7939 2.81097 12.698 2.71697C12.6021 2.62297 12.4732 2.57031 12.3389 2.57031C12.2046 2.57031 12.0757 2.62297 11.9798 2.71697C11.8839 2.81097 11.8287 2.93883 11.826 3.07309V4.63241C7.97458 4.88564 4.89689 7.96395 4.64365 11.8149H3.08434C2.94827 11.8149 2.81777 11.869 2.72156 11.9652C2.62534 12.0614 2.57129 12.1919 2.57129 12.328C2.57129 12.464 2.62534 12.5945 2.72156 12.6908C2.81777 12.787 2.94827 12.841 3.08434 12.841H4.64345C4.89627 16.6924 7.97417 19.7703 11.826 20.0233V21.5826C11.8287 21.7169 11.8839 21.8448 11.9798 21.9388C12.0757 22.0328 12.2046 22.0854 12.3389 22.0854C12.4732 22.0854 12.6021 22.0328 12.698 21.9388C12.7939 21.8448 12.8492 21.7169 12.8519 21.5826V20.0233C16.7034 19.7703 19.7813 16.6922 20.0344 12.841H21.5935C21.7296 12.841 21.86 12.787 21.9563 12.6908C22.0525 12.5945 22.1065 12.464 22.1065 12.328C22.1065 12.1919 22.0525 12.0614 21.9563 11.9652C21.86 11.869 21.7296 11.8149 21.5935 11.8149ZM11.8258 17.9734C9.10786 17.7284 6.93819 15.5585 6.69339 12.841H7.71991C7.95689 14.9977 9.66905 16.7099 11.8258 16.9469V17.9734ZM11.8258 7.70907C9.66905 7.94605 7.95689 9.65821 7.71991 11.8149H6.69339C6.9386 9.09785 9.10807 6.92777 11.8256 6.68255L11.8258 7.70907ZM12.8519 6.68276C15.5693 6.92777 17.7388 9.09785 17.984 11.8149H16.9577C16.7207 9.65801 15.0086 7.94585 12.8519 7.70907V6.68276ZM12.8519 17.9734V16.9471C15.0086 16.7101 16.7207 14.9979 16.9577 12.8412H17.984C17.7392 15.5585 15.5696 17.7282 12.8519 17.9734Z" fill="black"/>
</g>
</svg>
