<svg width="40" height="40" viewBox="0 0 40 40" fill="none" xmlns="http://www.w3.org/2000/svg">
<path d="M34.5697 18.6646L34.6004 19.1318H35.0686H38.1872C38.3267 19.1318 38.4606 19.1872 38.5592 19.2859C38.6579 19.3845 38.7133 19.5184 38.7133 19.6579C38.7133 19.7974 38.6579 19.9312 38.5592 20.0299C38.4606 20.1286 38.3267 20.184 38.1872 20.184H35.069H34.6008L34.5701 20.6512C34.0805 28.1033 28.124 34.0601 20.6712 34.5497L20.204 34.5804V35.0486V38.1614C20.2001 38.2976 20.1437 38.427 20.0463 38.5224C19.948 38.6188 19.8158 38.6728 19.6781 38.6728C19.5404 38.6728 19.4081 38.6188 19.3098 38.5224C19.2125 38.427 19.156 38.2976 19.1522 38.1614V35.0486V34.5804L18.6849 34.5497C11.2317 34.0601 5.27528 28.1037 4.78607 20.6512L4.7554 20.184H4.28714H1.16893C1.02939 20.184 0.895577 20.1286 0.796915 20.0299C0.69825 19.9312 0.642822 19.7974 0.642822 19.6579C0.642822 19.5184 0.69825 19.3846 0.796913 19.2859C0.895578 19.1872 1.0294 19.1318 1.16893 19.1318H4.28755H4.75575L4.78648 18.6646C5.27649 11.2129 11.2325 5.2557 18.685 4.76569L19.1522 4.73497V4.26676V1.15394C19.156 1.0178 19.2125 0.888375 19.3098 0.792965C19.4081 0.69657 19.5404 0.642578 19.6781 0.642578C19.8158 0.642578 19.948 0.696571 20.0463 0.792964C20.1437 0.888375 20.2001 1.0178 20.204 1.15394V4.26676V4.73497L20.6712 4.76569C28.1232 5.25569 34.0797 11.2133 34.5697 18.6646ZM18.6069 31.4467L19.1518 31.4958V30.9487V28.8957V28.4476L18.7064 28.3987C14.6259 27.9503 11.3854 24.7099 10.9371 20.6294L10.8881 20.184H10.4401H8.38703H7.83996L7.88904 20.7289C8.40033 26.4045 12.9304 30.935 18.6069 31.4467ZM18.7064 10.9171L19.1518 10.8682L19.1518 10.42L19.1513 8.36696L19.1512 7.81992L18.6064 7.86908C12.9307 8.38123 8.40119 12.9121 7.88905 18.5869L7.83987 19.1318H8.38703H10.4401H10.8881L10.9371 18.6864C11.3854 14.6059 14.6259 11.3655 18.7064 10.9171ZM20.7489 7.86949L20.204 7.82036V8.36747V10.4201V10.8682L20.6494 10.9171C24.7299 11.3651 27.9703 14.6055 28.4187 18.6864L28.4676 19.1318H28.9157H30.9683H31.5154L31.4663 18.5869C30.9541 12.9121 26.4246 8.38121 20.7489 7.86949ZM20.204 30.9487V31.4959L20.7489 31.4467C26.4249 30.9346 30.955 26.4046 31.4663 20.7293L31.5154 20.1844H30.9683H28.9157H28.4676L28.4187 20.6298C27.9703 24.7103 24.7299 27.9507 20.6494 28.3991L20.204 28.448V28.8961V30.9487Z" stroke="black"/>
</svg>
